<mxfile host="app.diagrams.net" agent="Mozilla/5.0 (Windows NT 10.0; Win64; x64) AppleWebKit/537.36 (KHTML, like Gecko) Chrome/131.0.0.0 Safari/537.36" version="26.0.9">
  <diagram name="Pagina-1" id="aEWXKU9YTVpwMpSL3lBM">
    <mxGraphModel dx="1050" dy="522" grid="1" gridSize="10" guides="1" tooltips="1" connect="1" arrows="1" fold="1" page="1" pageScale="1" pageWidth="827" pageHeight="1169" math="0" shadow="0">
      <root>
        <mxCell id="0" />
        <mxCell id="1" parent="0" />
        <mxCell id="IQzFeppVpejdXST4c3NG-3" value="" style="edgeStyle=orthogonalEdgeStyle;rounded=0;orthogonalLoop=1;jettySize=auto;html=1;" edge="1" parent="1" source="IQzFeppVpejdXST4c3NG-1" target="IQzFeppVpejdXST4c3NG-2">
          <mxGeometry relative="1" as="geometry" />
        </mxCell>
        <mxCell id="IQzFeppVpejdXST4c3NG-1" value="START" style="ellipse;whiteSpace=wrap;html=1;" vertex="1" parent="1">
          <mxGeometry x="354" y="20" width="120" height="80" as="geometry" />
        </mxCell>
        <mxCell id="IQzFeppVpejdXST4c3NG-5" value="" style="edgeStyle=orthogonalEdgeStyle;rounded=0;orthogonalLoop=1;jettySize=auto;html=1;" edge="1" parent="1" source="IQzFeppVpejdXST4c3NG-2" target="IQzFeppVpejdXST4c3NG-4">
          <mxGeometry relative="1" as="geometry" />
        </mxCell>
        <mxCell id="IQzFeppVpejdXST4c3NG-2" value="READ X" style="shape=parallelogram;perimeter=parallelogramPerimeter;whiteSpace=wrap;html=1;fixedSize=1;" vertex="1" parent="1">
          <mxGeometry x="354" y="190" width="120" height="60" as="geometry" />
        </mxCell>
        <mxCell id="IQzFeppVpejdXST4c3NG-7" value="" style="edgeStyle=orthogonalEdgeStyle;rounded=0;orthogonalLoop=1;jettySize=auto;html=1;" edge="1" parent="1" source="IQzFeppVpejdXST4c3NG-4" target="IQzFeppVpejdXST4c3NG-6">
          <mxGeometry relative="1" as="geometry" />
        </mxCell>
        <mxCell id="IQzFeppVpejdXST4c3NG-4" value="READ Y" style="shape=parallelogram;perimeter=parallelogramPerimeter;whiteSpace=wrap;html=1;fixedSize=1;" vertex="1" parent="1">
          <mxGeometry x="354" y="330" width="120" height="60" as="geometry" />
        </mxCell>
        <mxCell id="IQzFeppVpejdXST4c3NG-9" value="" style="edgeStyle=orthogonalEdgeStyle;rounded=0;orthogonalLoop=1;jettySize=auto;html=1;" edge="1" parent="1" source="IQzFeppVpejdXST4c3NG-6" target="IQzFeppVpejdXST4c3NG-8">
          <mxGeometry relative="1" as="geometry" />
        </mxCell>
        <mxCell id="IQzFeppVpejdXST4c3NG-6" value="READ Z" style="shape=parallelogram;perimeter=parallelogramPerimeter;whiteSpace=wrap;html=1;fixedSize=1;" vertex="1" parent="1">
          <mxGeometry x="354" y="470" width="120" height="60" as="geometry" />
        </mxCell>
        <mxCell id="IQzFeppVpejdXST4c3NG-11" value="" style="edgeStyle=orthogonalEdgeStyle;rounded=0;orthogonalLoop=1;jettySize=auto;html=1;" edge="1" parent="1" source="IQzFeppVpejdXST4c3NG-8" target="IQzFeppVpejdXST4c3NG-10">
          <mxGeometry relative="1" as="geometry" />
        </mxCell>
        <mxCell id="IQzFeppVpejdXST4c3NG-15" value="TRUE" style="edgeLabel;html=1;align=center;verticalAlign=middle;resizable=0;points=[];" vertex="1" connectable="0" parent="IQzFeppVpejdXST4c3NG-11">
          <mxGeometry x="-0.5508" y="-2" relative="1" as="geometry">
            <mxPoint as="offset" />
          </mxGeometry>
        </mxCell>
        <mxCell id="IQzFeppVpejdXST4c3NG-13" value="" style="edgeStyle=orthogonalEdgeStyle;rounded=0;orthogonalLoop=1;jettySize=auto;html=1;" edge="1" parent="1" source="IQzFeppVpejdXST4c3NG-8" target="IQzFeppVpejdXST4c3NG-12">
          <mxGeometry relative="1" as="geometry" />
        </mxCell>
        <mxCell id="IQzFeppVpejdXST4c3NG-14" value="FALSE" style="edgeLabel;html=1;align=center;verticalAlign=middle;resizable=0;points=[];" vertex="1" connectable="0" parent="IQzFeppVpejdXST4c3NG-13">
          <mxGeometry x="-0.0844" y="-1" relative="1" as="geometry">
            <mxPoint as="offset" />
          </mxGeometry>
        </mxCell>
        <mxCell id="IQzFeppVpejdXST4c3NG-8" value="(X + Y + Z)%2 == 0&lt;div&gt;AND&lt;/div&gt;&lt;div&gt;X%3 ==0&lt;/div&gt;&lt;div&gt;AND Y%5 == 0&lt;/div&gt;&lt;div&gt;AND&lt;/div&gt;&lt;div&gt;Z % 7 == 0&lt;/div&gt;" style="rhombus;whiteSpace=wrap;html=1;" vertex="1" parent="1">
          <mxGeometry x="310" y="600" width="210" height="160" as="geometry" />
        </mxCell>
        <mxCell id="IQzFeppVpejdXST4c3NG-17" style="edgeStyle=orthogonalEdgeStyle;rounded=0;orthogonalLoop=1;jettySize=auto;html=1;exitX=1;exitY=0.5;exitDx=0;exitDy=0;entryX=0;entryY=0.5;entryDx=0;entryDy=0;" edge="1" parent="1" source="IQzFeppVpejdXST4c3NG-10" target="IQzFeppVpejdXST4c3NG-16">
          <mxGeometry relative="1" as="geometry" />
        </mxCell>
        <mxCell id="IQzFeppVpejdXST4c3NG-10" value="WRITE &quot; REGOLE RISPETTATE&quot;" style="shape=parallelogram;perimeter=parallelogramPerimeter;whiteSpace=wrap;html=1;fixedSize=1;" vertex="1" parent="1">
          <mxGeometry x="342.5" y="890" width="145" height="60" as="geometry" />
        </mxCell>
        <mxCell id="IQzFeppVpejdXST4c3NG-18" style="edgeStyle=orthogonalEdgeStyle;rounded=0;orthogonalLoop=1;jettySize=auto;html=1;exitX=0.5;exitY=1;exitDx=0;exitDy=0;entryX=0.5;entryY=0;entryDx=0;entryDy=0;" edge="1" parent="1" source="IQzFeppVpejdXST4c3NG-12" target="IQzFeppVpejdXST4c3NG-16">
          <mxGeometry relative="1" as="geometry" />
        </mxCell>
        <mxCell id="IQzFeppVpejdXST4c3NG-12" value="WRITE &quot; REGOLE NON RISPETTATE" style="shape=parallelogram;perimeter=parallelogramPerimeter;whiteSpace=wrap;html=1;fixedSize=1;" vertex="1" parent="1">
          <mxGeometry x="645" y="650" width="165" height="60" as="geometry" />
        </mxCell>
        <mxCell id="IQzFeppVpejdXST4c3NG-20" style="edgeStyle=orthogonalEdgeStyle;rounded=0;orthogonalLoop=1;jettySize=auto;html=1;exitX=0.5;exitY=1;exitDx=0;exitDy=0;entryX=0.5;entryY=0;entryDx=0;entryDy=0;" edge="1" parent="1" source="IQzFeppVpejdXST4c3NG-16" target="IQzFeppVpejdXST4c3NG-19">
          <mxGeometry relative="1" as="geometry" />
        </mxCell>
        <mxCell id="IQzFeppVpejdXST4c3NG-16" value="" style="ellipse;whiteSpace=wrap;html=1;aspect=fixed;" vertex="1" parent="1">
          <mxGeometry x="712.5" y="905" width="30" height="30" as="geometry" />
        </mxCell>
        <mxCell id="IQzFeppVpejdXST4c3NG-19" value="END" style="ellipse;whiteSpace=wrap;html=1;" vertex="1" parent="1">
          <mxGeometry x="667.5" y="1010" width="120" height="80" as="geometry" />
        </mxCell>
      </root>
    </mxGraphModel>
  </diagram>
</mxfile>
